<?xml version="1.0" encoding="utf-8"?>
<!-- Generator: Adobe Illustrator 19.2.1, SVG Export Plug-In . SVG Version: 6.00 Build 0)  -->
<svg version="1.1" id="Capa_1" xmlns="http://www.w3.org/2000/svg" xmlns:xlink="http://www.w3.org/1999/xlink" x="0px" y="0px"
	 viewBox="0 0 402.4 402.4" style="enable-background:new 0 0 402.4 402.4;" xml:space="preserve">
<style type="text/css">
	.st0{fill:#FFFFFF;}
</style>
<g>
	<path class="st0" d="M291.4,59.6h-36.1V12c0-6.6-5.4-12-12-12c-6.6,0-12,5.4-12,12v47.5h-60.1V12c0-6.6-5.4-12-12-12
		c-6.6,0-12,5.4-12,12v47.5H111c-6.6,0-12,5.4-12,12v67.6c0,52.3,39.5,95.5,90.2,101.5v149.7c0,6.6,5.4,12,12,12c6.6,0,12-5.4,12-12
		V240.6c50.7-6,90.2-49.2,90.2-101.5V71.6C303.4,65,298,59.6,291.4,59.6z M279.4,139.2c0,43.1-35.1,78.2-78.2,78.2
		S123,182.3,123,139.2V83.6h156.3V139.2z"/>
</g>
</svg>
