<?xml version="1.0" encoding="utf-8"?>
<!-- Generator: Adobe Illustrator 19.2.1, SVG Export Plug-In . SVG Version: 6.00 Build 0)  -->
<svg version="1.1" id="Capa_1" xmlns="http://www.w3.org/2000/svg" xmlns:xlink="http://www.w3.org/1999/xlink" x="0px" y="0px"
	 viewBox="0 0 473.9 473.9" style="enable-background:new 0 0 473.9 473.9;" xml:space="preserve">
<style type="text/css">
	.st0{fill:#FFFFFF;}
</style>
<g>
	<g>
		<g>
			<path class="st0" d="M153.2,276c-4.3,0-8.6-1.1-11.8-4.3c-6.4-6.4-6.4-16,0-22.4l83.4-83.4c6.4-6.4,16-6.4,22.4,0l83.4,83.4
				c6.4,6.4,6.4,16,0,22.4s-16,6.4-22.4,0l-71.6-71.6L165,271.7C161.8,274.9,157.5,276,153.2,276z"/>
			<path class="st0" d="M236.6,436.3c-8.6,0-16-7.5-16-16V176.6c0-8.6,7.5-16,16-16s16,7.5,16,16v243.7
				C252.6,429.9,245.2,436.3,236.6,436.3z"/>
		</g>
		<g>
			<path class="st0" d="M361.7,351.9h-69.5c-8.6,0-16-7.5-16-16c0-8.6,7.5-16,16-16h68.4c43.8-1.1,80.2-37.4,80.2-81.2
				s-36.3-81.2-80.2-81.2c-8.6,0-16-7.5-16-16s7.5-16,16-16c62,0,113.3,51.3,113.3,113.3S422.6,350.8,361.7,351.9z"/>
			<path class="st0" d="M181,351.9h-27.8c-11.8,0-22.4-1.1-31-3.2C47.4,332.6-5,263.1,0.4,186.2C5.7,110.3,66.7,49.4,142.5,44
				c32.1-2.1,63.1,5.3,89.8,20.3c7.5,4.3,10.7,13.9,5.3,22.4c-4.3,7.5-13.9,10.7-22.4,5.3c-21.4-12.8-46-18.2-71.6-16
				c-59.9,4.3-109,53.4-113.3,113.3c-4.3,60.9,37.4,116.5,96.2,129.3c6.4,1.1,15,2.1,24.6,2.1h27.8c8.6,0,16,7.5,16,16
				C197.1,344.4,189.6,351.9,181,351.9z"/>
			<path class="st0" d="M360.6,157.3h-1.1c-8.6-1.1-15-8.6-15-17.1c0-2.1,0-4.3,0-6.4c0-35.3-28.9-64.1-64.1-64.1
				c-17.1,0-33.1,6.4-46,19.2c-6.4,6.4-16,6.4-22.4,0s-6.4-16,0-22.4c18.2-18.2,42.8-28.9,68.4-28.9c53.4,0,96.2,42.8,96.2,96.2
				c0,3.2,0,5.3,0,8.6C376.6,150.9,369.2,157.3,360.6,157.3z"/>
		</g>
	</g>
</g>
</svg>
